<?xml version="1.0" standalone="no"?>
<!DOCTYPE svg PUBLIC "-//W3C//DTD SVG 20010904//EN"
 "http://www.w3.org/TR/2001/REC-SVG-20010904/DTD/svg10.dtd">
<svg version="1.0" xmlns="http://www.w3.org/2000/svg"
 width="750.000000pt" height="750.000000pt" viewBox="0 0 750.000000 750.000000"
 preserveAspectRatio="xMidYMid meet">
<metadata>
Created by potrace 1.14, written by Peter Selinger 2001-2017
</metadata>
<g transform="translate(0.000000,750.000000) scale(0.100000,-0.100000)"
fill="#000000" stroke="none">
<path d="M1278 5767 c-61 -47 -88 -98 -88 -170 0 -128 73 -199 232 -222 101
-15 223 -46 306 -77 28 -11 52 -21 52 -22 0 0 14 -35 31 -76 39 -95 95 -231
119 -290 10 -25 62 -151 115 -280 53 -129 105 -255 115 -280 9 -25 34 -85 55
-135 65 -158 149 -364 238 -580 47 -115 104 -255 127 -310 85 -205 84 -222
-39 -418 -129 -207 -201 -330 -201 -345 0 -7 11 -24 25 -38 l25 -25 245 3 245
3 0 -80 -1 -80 -40 -25 c-52 -32 -105 -103 -131 -177 -54 -154 23 -337 174
-413 55 -27 71 -30 155 -30 83 0 100 3 151 29 55 28 127 94 152 140 79 148 36
347 -95 444 l-44 32 -1 80 0 80 910 -3 910 -2 0 -73 0 -72 -58 -46 c-40 -32
-68 -66 -92 -110 -33 -61 -35 -69 -34 -165 0 -92 2 -105 28 -150 42 -73 94
-123 161 -155 53 -25 71 -29 151 -29 81 0 97 3 152 30 69 35 120 87 158 162
23 46 27 65 27 146 0 85 -3 98 -34 159 -25 49 -48 78 -86 107 l-53 41 0 78 0
77 130 0 c157 0 193 11 216 66 21 50 11 96 -27 128 l-31 26 -1422 0 c-1270 0
-1424 2 -1444 16 -12 8 -22 21 -22 28 0 6 19 43 43 81 140 229 145 263 62 455
-20 47 -49 117 -65 155 -15 39 -44 111 -65 160 -20 50 -45 110 -55 135 -10 25
-46 113 -80 195 -71 172 -124 300 -150 365 -10 25 -25 63 -35 85 -39 91 -86
206 -123 300 -22 55 -57 141 -77 190 -199 480 -187 448 -195 521 -9 79 -35
116 -103 146 -100 44 -203 101 -314 174 l-113 74 -74 0 c-69 0 -78 -3 -118
-33z"/>
<path d="M2433 5370 c-44 -19 -57 -89 -27 -158 22 -49 54 -128 98 -234 20 -49
52 -127 72 -175 20 -49 44 -108 54 -133 10 -25 34 -83 53 -130 19 -47 61 -148
92 -225 32 -77 68 -165 80 -195 30 -71 79 -191 148 -360 78 -192 95 -228 138
-291 71 -106 187 -185 304 -209 64 -13 577 -10 1675 11 636 12 745 18 815 49
96 41 177 128 216 229 18 47 34 177 89 701 17 162 40 374 51 470 10 96 19 221
19 277 0 97 -1 103 -24 118 -25 16 -112 23 -1076 85 -261 17 -639 42 -840 56
-201 14 -444 29 -540 34 -96 4 -339 20 -540 34 -201 13 -450 30 -555 36 -104
6 -210 13 -235 15 -25 3 -55 1 -67 -5z m442 -286 l61 -5 31 -77 c17 -42 61
-149 98 -237 37 -88 78 -186 91 -217 13 -32 35 -84 48 -115 13 -32 41 -98 61
-148 20 -49 48 -116 61 -147 13 -32 35 -84 48 -115 13 -32 43 -103 66 -158 23
-55 50 -120 60 -145 10 -25 39 -94 65 -155 67 -158 68 -145 -3 -145 -78 0
-155 29 -208 78 -44 40 -99 122 -114 169 -5 15 -27 73 -50 128 -23 55 -66 159
-95 230 -29 72 -70 171 -90 220 -21 50 -46 110 -55 135 -10 25 -46 113 -80
195 -74 178 -125 303 -150 365 -9 25 -27 67 -39 93 -11 27 -21 53 -21 58 0 9
46 8 215 -7z m496 -30 l77 -6 20 -47 c24 -52 62 -142 116 -276 21 -49 44 -106
53 -125 16 -36 122 -291 153 -370 10 -25 34 -83 55 -130 20 -47 60 -143 90
-215 29 -71 83 -200 118 -286 l65 -157 -46 -6 c-45 -6 -212 -9 -212 -3 0 1
-16 41 -36 87 -19 47 -46 112 -59 145 -13 33 -38 94 -55 135 -18 41 -43 100
-55 130 -13 30 -53 127 -90 215 -36 88 -93 225 -127 305 -69 166 -98 236 -132
318 -13 31 -40 95 -59 142 -19 47 -42 102 -51 124 l-17 38 58 -6 c32 -3 92 -8
134 -12z m539 -34 c46 0 59 -3 63 -17 3 -10 20 -52 37 -93 35 -82 101 -239
130 -310 10 -25 37 -90 60 -145 23 -55 50 -120 60 -145 10 -25 48 -117 85
-205 91 -218 111 -266 138 -332 13 -32 48 -113 76 -181 29 -68 51 -125 50
-126 -2 -2 -61 -7 -130 -10 l-125 -7 -11 33 c-6 18 -28 71 -48 118 -20 47 -49
117 -65 155 -15 39 -40 98 -54 133 -14 34 -37 88 -50 120 -13 31 -43 102 -66
157 -23 55 -50 120 -60 145 -10 25 -33 79 -50 120 -18 41 -48 113 -67 160 -19
47 -45 110 -58 140 -71 172 -95 229 -110 264 l-17 39 78 -6 c42 -4 103 -7 134
-7z m522 -36 c40 -4 58 -10 61 -22 3 -10 24 -62 47 -117 23 -55 53 -125 65
-155 57 -138 96 -231 125 -300 17 -41 40 -95 50 -120 10 -25 48 -117 85 -205
37 -88 78 -185 90 -215 13 -30 39 -93 58 -140 19 -47 49 -118 65 -157 l30 -73
-32 0 c-17 0 -75 -3 -128 -6 -54 -4 -98 -5 -98 -2 0 2 -16 42 -36 88 -19 47
-42 101 -49 120 -7 19 -32 80 -55 135 -24 55 -53 125 -65 155 -13 30 -42 100
-65 155 -23 55 -50 120 -60 145 -10 25 -48 117 -85 205 -37 88 -78 186 -91
218 -31 74 -66 157 -98 234 -14 35 -26 65 -26 69 0 6 75 2 212 -12z m565 -33
c3 -1 20 -39 70 -161 64 -155 81 -194 123 -295 23 -55 50 -120 60 -145 10 -25
48 -117 85 -205 78 -185 106 -253 139 -332 59 -144 95 -231 110 -265 l16 -37
-33 -5 c-67 -10 -227 -13 -227 -4 0 5 -13 40 -29 76 -15 37 -45 108 -65 157
-45 110 -64 155 -111 265 -47 110 -66 155 -111 265 -39 95 -80 195 -118 285
-13 30 -40 96 -61 145 -20 50 -43 106 -52 125 -9 19 -26 60 -38 90 l-22 55
131 -6 c72 -4 132 -7 133 -8z m506 -35 c11 0 24 -17 37 -51 10 -27 33 -84 51
-125 17 -41 42 -100 54 -130 13 -30 42 -100 65 -155 23 -55 50 -120 60 -145
10 -25 39 -94 65 -155 26 -60 53 -126 60 -145 7 -19 30 -73 50 -120 21 -47 37
-98 36 -115 -3 -69 -63 -154 -138 -193 -19 -11 -22 -8 -36 31 -13 35 -96 232
-249 592 -16 39 -38 90 -48 115 -10 25 -35 83 -55 130 -37 84 -63 147 -109
258 -13 31 -40 94 -59 140 l-36 83 117 -7 c64 -4 125 -8 135 -8z m468 -28
l156 -11 -4 -46 c-2 -25 -18 -177 -35 -337 l-33 -291 -26 66 c-15 36 -38 94
-53 129 -59 142 -77 184 -136 327 -34 83 -64 156 -67 163 -6 15 1 15 198 0z"/>
</g>
</svg>
